<svg xmlns="http://www.w3.org/2000/svg" xmlns:xlink="http://www.w3.org/1999/xlink" width="192" zoomAndPan="magnify" viewBox="0 0 144 143.999998" height="192" preserveAspectRatio="xMidYMid meet" version="1.0"><defs><clipPath id="7748e7783f"><path d="M 6.226562 6.226562 L 137.476562 6.226562 L 137.476562 137.476562 L 6.226562 137.476562 Z M 6.226562 6.226562 " clip-rule="nonzero"/></clipPath><clipPath id="66d7e8be11"><path d="M 137.476562 71.851562 C 137.476562 72.925781 137.453125 74 137.398438 75.074219 C 137.347656 76.144531 137.265625 77.214844 137.164062 78.285156 C 137.058594 79.355469 136.925781 80.421875 136.769531 81.480469 C 136.609375 82.542969 136.425781 83.601562 136.21875 84.65625 C 136.007812 85.710938 135.773438 86.757812 135.511719 87.796875 C 135.25 88.839844 134.964844 89.875 134.652344 90.902344 C 134.339844 91.929688 134.003906 92.949219 133.640625 93.960938 C 133.28125 94.972656 132.894531 95.972656 132.484375 96.964844 C 132.070312 97.960938 131.636719 98.941406 131.175781 99.910156 C 130.71875 100.882812 130.234375 101.839844 129.730469 102.789062 C 129.222656 103.734375 128.695312 104.671875 128.140625 105.589844 C 127.589844 106.511719 127.015625 107.417969 126.417969 108.3125 C 125.820312 109.207031 125.203125 110.082031 124.5625 110.945312 C 123.925781 111.808594 123.261719 112.65625 122.582031 113.484375 C 121.902344 114.316406 121.199219 115.128906 120.476562 115.925781 C 119.757812 116.71875 119.015625 117.496094 118.257812 118.257812 C 117.496094 119.015625 116.71875 119.757812 115.925781 120.476562 C 115.128906 121.199219 114.316406 121.902344 113.484375 122.582031 C 112.65625 123.261719 111.808594 123.925781 110.945312 124.5625 C 110.082031 125.203125 109.207031 125.820312 108.3125 126.417969 C 107.417969 127.015625 106.511719 127.589844 105.589844 128.140625 C 104.671875 128.695312 103.734375 129.222656 102.789062 129.730469 C 101.839844 130.234375 100.882812 130.71875 99.910156 131.175781 C 98.941406 131.636719 97.960938 132.070312 96.964844 132.484375 C 95.972656 132.894531 94.972656 133.28125 93.960938 133.640625 C 92.949219 134.003906 91.929688 134.339844 90.902344 134.652344 C 89.875 134.964844 88.839844 135.25 87.796875 135.511719 C 86.757812 135.773438 85.710938 136.007812 84.65625 136.21875 C 83.601562 136.425781 82.542969 136.609375 81.480469 136.769531 C 80.421875 136.925781 79.355469 137.058594 78.285156 137.164062 C 77.214844 137.265625 76.144531 137.347656 75.074219 137.398438 C 74 137.453125 72.925781 137.476562 71.851562 137.476562 C 70.777344 137.476562 69.707031 137.453125 68.632812 137.398438 C 67.558594 137.347656 66.488281 137.265625 65.421875 137.164062 C 64.351562 137.058594 63.285156 136.925781 62.222656 136.769531 C 61.160156 136.609375 60.105469 136.425781 59.050781 136.21875 C 57.996094 136.007812 56.949219 135.773438 55.90625 135.511719 C 54.867188 135.25 53.832031 134.964844 52.804688 134.652344 C 51.777344 134.339844 50.757812 134.003906 49.746094 133.640625 C 48.734375 133.28125 47.730469 132.894531 46.738281 132.484375 C 45.746094 132.070312 44.765625 131.636719 43.792969 131.175781 C 42.824219 130.71875 41.863281 130.234375 40.917969 129.730469 C 39.96875 129.222656 39.035156 128.695312 38.113281 128.140625 C 37.195312 127.589844 36.285156 127.015625 35.394531 126.417969 C 34.5 125.820312 33.621094 125.203125 32.761719 124.5625 C 31.898438 123.925781 31.050781 123.261719 30.222656 122.582031 C 29.390625 121.902344 28.578125 121.199219 27.78125 120.476562 C 26.984375 119.757812 26.207031 119.015625 25.449219 118.257812 C 24.691406 117.496094 23.949219 116.71875 23.226562 115.925781 C 22.507812 115.128906 21.804688 114.316406 21.125 113.484375 C 20.441406 112.65625 19.78125 111.808594 19.144531 110.945312 C 18.503906 110.082031 17.882812 109.207031 17.289062 108.3125 C 16.691406 107.417969 16.117188 106.511719 15.566406 105.589844 C 15.011719 104.671875 14.484375 103.734375 13.976562 102.789062 C 13.472656 101.839844 12.988281 100.882812 12.527344 99.910156 C 12.070312 98.941406 11.632812 97.960938 11.222656 96.964844 C 10.8125 95.972656 10.425781 94.972656 10.0625 93.960938 C 9.703125 92.949219 9.367188 91.929688 9.054688 90.902344 C 8.742188 89.875 8.457031 88.839844 8.195312 87.796875 C 7.933594 86.757812 7.699219 85.710938 7.488281 84.65625 C 7.28125 83.601562 7.097656 82.542969 6.9375 81.480469 C 6.78125 80.421875 6.648438 79.355469 6.542969 78.285156 C 6.4375 77.214844 6.359375 76.144531 6.308594 75.074219 C 6.253906 74 6.226562 72.925781 6.226562 71.851562 C 6.226562 70.777344 6.253906 69.707031 6.308594 68.632812 C 6.359375 67.558594 6.4375 66.488281 6.542969 65.421875 C 6.648438 64.351562 6.78125 63.285156 6.9375 62.222656 C 7.097656 61.160156 7.28125 60.105469 7.488281 59.050781 C 7.699219 57.996094 7.933594 56.949219 8.195312 55.90625 C 8.457031 54.867188 8.742188 53.832031 9.054688 52.804688 C 9.367188 51.777344 9.703125 50.757812 10.0625 49.746094 C 10.425781 48.734375 10.8125 47.730469 11.222656 46.738281 C 11.632812 45.746094 12.070312 44.765625 12.527344 43.792969 C 12.988281 42.824219 13.472656 41.863281 13.976562 40.917969 C 14.484375 39.96875 15.011719 39.035156 15.566406 38.113281 C 16.117188 37.195312 16.691406 36.285156 17.289062 35.394531 C 17.882812 34.5 18.503906 33.621094 19.144531 32.761719 C 19.78125 31.898438 20.441406 31.050781 21.125 30.222656 C 21.804688 29.390625 22.507812 28.578125 23.226562 27.78125 C 23.949219 26.984375 24.691406 26.207031 25.449219 25.449219 C 26.207031 24.691406 26.984375 23.949219 27.78125 23.226562 C 28.578125 22.507812 29.390625 21.804688 30.222656 21.125 C 31.050781 20.441406 31.898438 19.78125 32.761719 19.144531 C 33.621094 18.503906 34.5 17.882812 35.394531 17.289062 C 36.285156 16.691406 37.195312 16.117188 38.113281 15.566406 C 39.035156 15.011719 39.96875 14.484375 40.917969 13.976562 C 41.863281 13.472656 42.824219 12.988281 43.792969 12.527344 C 44.765625 12.070312 45.746094 11.632812 46.738281 11.222656 C 47.730469 10.8125 48.734375 10.425781 49.746094 10.0625 C 50.757812 9.703125 51.777344 9.367188 52.804688 9.054688 C 53.832031 8.742188 54.867188 8.457031 55.90625 8.195312 C 56.949219 7.933594 57.996094 7.699219 59.050781 7.488281 C 60.105469 7.28125 61.160156 7.097656 62.222656 6.9375 C 63.285156 6.78125 64.351562 6.648438 65.421875 6.542969 C 66.488281 6.4375 67.558594 6.359375 68.632812 6.308594 C 69.707031 6.253906 70.777344 6.226562 71.851562 6.226562 C 72.925781 6.226562 74 6.253906 75.074219 6.308594 C 76.144531 6.359375 77.214844 6.4375 78.285156 6.542969 C 79.355469 6.648438 80.421875 6.78125 81.480469 6.9375 C 82.542969 7.097656 83.601562 7.28125 84.65625 7.488281 C 85.710938 7.699219 86.757812 7.933594 87.796875 8.195312 C 88.839844 8.457031 89.875 8.742188 90.902344 9.054688 C 91.929688 9.367188 92.949219 9.703125 93.960938 10.0625 C 94.972656 10.425781 95.972656 10.8125 96.964844 11.222656 C 97.960938 11.632812 98.941406 12.070312 99.910156 12.527344 C 100.882812 12.988281 101.839844 13.472656 102.789062 13.976562 C 103.734375 14.484375 104.671875 15.011719 105.589844 15.566406 C 106.511719 16.117188 107.417969 16.691406 108.3125 17.289062 C 109.207031 17.882812 110.082031 18.503906 110.945312 19.144531 C 111.808594 19.78125 112.65625 20.441406 113.484375 21.125 C 114.316406 21.804688 115.128906 22.507812 115.925781 23.226562 C 116.71875 23.949219 117.496094 24.691406 118.257812 25.449219 C 119.015625 26.207031 119.757812 26.984375 120.476562 27.78125 C 121.199219 28.578125 121.902344 29.390625 122.582031 30.222656 C 123.261719 31.050781 123.925781 31.898438 124.5625 32.761719 C 125.203125 33.621094 125.820312 34.5 126.417969 35.394531 C 127.015625 36.285156 127.589844 37.195312 128.140625 38.113281 C 128.695312 39.035156 129.222656 39.96875 129.730469 40.917969 C 130.234375 41.863281 130.71875 42.824219 131.175781 43.792969 C 131.636719 44.765625 132.070312 45.746094 132.484375 46.738281 C 132.894531 47.730469 133.28125 48.734375 133.640625 49.746094 C 134.003906 50.757812 134.339844 51.777344 134.652344 52.804688 C 134.964844 53.832031 135.25 54.867188 135.511719 55.90625 C 135.773438 56.949219 136.007812 57.996094 136.21875 59.050781 C 136.425781 60.105469 136.609375 61.160156 136.769531 62.222656 C 136.925781 63.285156 137.058594 64.351562 137.164062 65.421875 C 137.265625 66.488281 137.347656 67.558594 137.398438 68.632812 C 137.453125 69.707031 137.476562 70.777344 137.476562 71.851562 Z M 137.476562 71.851562 " clip-rule="nonzero"/></clipPath><linearGradient x1="2" gradientTransform="matrix(3.645833, 0, 0, 3.645833, -1.063509, -1.063505)" y1="20" x2="37.999999" gradientUnits="userSpaceOnUse" y2="20" id="7def52ef29"><stop stop-opacity="1" stop-color="rgb(98.429871%, 84.709167%, 90.19928%)" offset="0"/><stop stop-opacity="1" stop-color="rgb(98.414612%, 84.564209%, 90.097046%)" offset="0.015625"/><stop stop-opacity="1" stop-color="rgb(98.382568%, 84.275818%, 89.89563%)" offset="0.03125"/><stop stop-opacity="1" stop-color="rgb(98.352051%, 83.988953%, 89.692688%)" offset="0.046875"/><stop stop-opacity="1" stop-color="rgb(98.321533%, 83.700562%, 89.491272%)" offset="0.0625"/><stop stop-opacity="1" stop-color="rgb(98.291016%, 83.41217%, 89.28833%)" offset="0.078125"/><stop stop-opacity="1" stop-color="rgb(98.260498%, 83.123779%, 89.085388%)" offset="0.09375"/><stop stop-opacity="1" stop-color="rgb(98.22998%, 82.835388%, 88.883972%)" offset="0.109375"/><stop stop-opacity="1" stop-color="rgb(98.199463%, 82.546997%, 88.68103%)" offset="0.125"/><stop stop-opacity="1" stop-color="rgb(98.168945%, 82.260132%, 88.479614%)" offset="0.140625"/><stop stop-opacity="1" stop-color="rgb(98.138428%, 81.971741%, 88.276672%)" offset="0.15625"/><stop stop-opacity="1" stop-color="rgb(98.10791%, 81.68335%, 88.07373%)" offset="0.171875"/><stop stop-opacity="1" stop-color="rgb(98.077393%, 81.394958%, 87.872314%)" offset="0.1875"/><stop stop-opacity="1" stop-color="rgb(98.046875%, 81.106567%, 87.669373%)" offset="0.203125"/><stop stop-opacity="1" stop-color="rgb(98.016357%, 80.818176%, 87.466431%)" offset="0.21875"/><stop stop-opacity="1" stop-color="rgb(97.98584%, 80.531311%, 87.265015%)" offset="0.234375"/><stop stop-opacity="1" stop-color="rgb(97.953796%, 80.24292%, 87.062073%)" offset="0.25"/><stop stop-opacity="1" stop-color="rgb(97.923279%, 79.954529%, 86.860657%)" offset="0.265625"/><stop stop-opacity="1" stop-color="rgb(97.892761%, 79.666138%, 86.657715%)" offset="0.28125"/><stop stop-opacity="1" stop-color="rgb(97.862244%, 79.377747%, 86.454773%)" offset="0.296875"/><stop stop-opacity="1" stop-color="rgb(97.831726%, 79.090881%, 86.253357%)" offset="0.3125"/><stop stop-opacity="1" stop-color="rgb(97.801208%, 78.80249%, 86.050415%)" offset="0.328125"/><stop stop-opacity="1" stop-color="rgb(97.770691%, 78.514099%, 85.848999%)" offset="0.34375"/><stop stop-opacity="1" stop-color="rgb(97.740173%, 78.225708%, 85.646057%)" offset="0.359375"/><stop stop-opacity="1" stop-color="rgb(97.709656%, 77.937317%, 85.443115%)" offset="0.375"/><stop stop-opacity="1" stop-color="rgb(97.679138%, 77.648926%, 85.241699%)" offset="0.390625"/><stop stop-opacity="1" stop-color="rgb(97.648621%, 77.362061%, 85.038757%)" offset="0.40625"/><stop stop-opacity="1" stop-color="rgb(97.618103%, 77.073669%, 84.837341%)" offset="0.421875"/><stop stop-opacity="1" stop-color="rgb(97.587585%, 76.785278%, 84.634399%)" offset="0.4375"/><stop stop-opacity="1" stop-color="rgb(97.557068%, 76.496887%, 84.431458%)" offset="0.453125"/><stop stop-opacity="1" stop-color="rgb(97.525024%, 76.208496%, 84.230042%)" offset="0.46875"/><stop stop-opacity="1" stop-color="rgb(97.494507%, 75.920105%, 84.0271%)" offset="0.484375"/><stop stop-opacity="1" stop-color="rgb(97.463989%, 75.63324%, 83.825684%)" offset="0.5"/><stop stop-opacity="1" stop-color="rgb(97.433472%, 75.344849%, 83.622742%)" offset="0.515625"/><stop stop-opacity="1" stop-color="rgb(97.402954%, 75.056458%, 83.4198%)" offset="0.53125"/><stop stop-opacity="1" stop-color="rgb(97.372437%, 74.768066%, 83.218384%)" offset="0.546875"/><stop stop-opacity="1" stop-color="rgb(97.341919%, 74.479675%, 83.015442%)" offset="0.5625"/><stop stop-opacity="1" stop-color="rgb(97.311401%, 74.191284%, 82.8125%)" offset="0.578125"/><stop stop-opacity="1" stop-color="rgb(97.280884%, 73.904419%, 82.611084%)" offset="0.59375"/><stop stop-opacity="1" stop-color="rgb(97.250366%, 73.616028%, 82.408142%)" offset="0.609375"/><stop stop-opacity="1" stop-color="rgb(97.219849%, 73.327637%, 82.206726%)" offset="0.625"/><stop stop-opacity="1" stop-color="rgb(97.189331%, 73.039246%, 82.003784%)" offset="0.640625"/><stop stop-opacity="1" stop-color="rgb(97.158813%, 72.750854%, 81.800842%)" offset="0.65625"/><stop stop-opacity="1" stop-color="rgb(97.128296%, 72.463989%, 81.599426%)" offset="0.671875"/><stop stop-opacity="1" stop-color="rgb(97.096252%, 72.175598%, 81.396484%)" offset="0.6875"/><stop stop-opacity="1" stop-color="rgb(97.065735%, 71.887207%, 81.195068%)" offset="0.703125"/><stop stop-opacity="1" stop-color="rgb(97.035217%, 71.598816%, 80.992126%)" offset="0.71875"/><stop stop-opacity="1" stop-color="rgb(97.0047%, 71.310425%, 80.789185%)" offset="0.734375"/><stop stop-opacity="1" stop-color="rgb(96.974182%, 71.022034%, 80.587769%)" offset="0.75"/><stop stop-opacity="1" stop-color="rgb(96.943665%, 70.735168%, 80.384827%)" offset="0.765625"/><stop stop-opacity="1" stop-color="rgb(96.913147%, 70.446777%, 80.183411%)" offset="0.78125"/><stop stop-opacity="1" stop-color="rgb(96.882629%, 70.158386%, 79.980469%)" offset="0.796875"/><stop stop-opacity="1" stop-color="rgb(96.852112%, 69.869995%, 79.777527%)" offset="0.8125"/><stop stop-opacity="1" stop-color="rgb(96.821594%, 69.581604%, 79.576111%)" offset="0.828125"/><stop stop-opacity="1" stop-color="rgb(96.791077%, 69.293213%, 79.373169%)" offset="0.84375"/><stop stop-opacity="1" stop-color="rgb(96.760559%, 69.006348%, 79.171753%)" offset="0.859375"/><stop stop-opacity="1" stop-color="rgb(96.730042%, 68.717957%, 78.968811%)" offset="0.875"/><stop stop-opacity="1" stop-color="rgb(96.699524%, 68.429565%, 78.765869%)" offset="0.890625"/><stop stop-opacity="1" stop-color="rgb(96.669006%, 68.141174%, 78.564453%)" offset="0.90625"/><stop stop-opacity="1" stop-color="rgb(96.636963%, 67.852783%, 78.361511%)" offset="0.921875"/><stop stop-opacity="1" stop-color="rgb(96.606445%, 67.565918%, 78.158569%)" offset="0.9375"/><stop stop-opacity="1" stop-color="rgb(96.575928%, 67.277527%, 77.957153%)" offset="0.953125"/><stop stop-opacity="1" stop-color="rgb(96.54541%, 66.989136%, 77.754211%)" offset="0.96875"/><stop stop-opacity="1" stop-color="rgb(96.514893%, 66.700745%, 77.552795%)" offset="0.984375"/><stop stop-opacity="1" stop-color="rgb(96.484375%, 66.412354%, 77.349854%)" offset="1"/></linearGradient><clipPath id="abbc1a30bc"><path d="M 33 39 L 110 39 L 110 112 L 33 112 Z M 33 39 " clip-rule="nonzero"/></clipPath><clipPath id="f713d5ebf3"><path d="M 88.804688 39.40625 C 88.375 39.191406 87.914062 39.066406 87.433594 39.03125 C 86.949219 39 86.480469 39.0625 86.023438 39.214844 C 85.5625 39.367188 85.152344 39.605469 84.789062 39.921875 C 84.421875 40.242188 84.132812 40.617188 83.917969 41.046875 C 83.703125 41.480469 83.578125 41.9375 83.542969 42.421875 C 83.511719 42.902344 83.570312 43.375 83.726562 43.832031 C 83.878906 44.292969 84.113281 44.703125 84.433594 45.066406 C 84.75 45.433594 85.125 45.722656 85.558594 45.9375 C 86.585938 46.449219 87.585938 47.015625 88.550781 47.636719 C 89.519531 48.261719 90.449219 48.933594 91.339844 49.660156 C 92.230469 50.386719 93.078125 51.160156 93.882812 51.984375 C 94.6875 52.804688 95.441406 53.667969 96.152344 54.574219 C 96.859375 55.480469 97.515625 56.421875 98.117188 57.402344 C 98.71875 58.378906 99.265625 59.390625 99.753906 60.429688 C 100.246094 61.46875 100.675781 62.535156 101.046875 63.621094 C 101.417969 64.710938 101.726562 65.816406 101.972656 66.9375 C 102.21875 68.0625 102.402344 69.195312 102.523438 70.335938 C 102.644531 71.480469 102.699219 72.625 102.691406 73.777344 C 102.683594 74.925781 102.613281 76.070312 102.476562 77.214844 C 102.339844 78.355469 102.140625 79.484375 101.878906 80.605469 C 101.617188 81.722656 101.292969 82.824219 100.90625 83.90625 C 100.523438 84.992188 100.078125 86.050781 99.574219 87.082031 C 99.070312 88.117188 98.511719 89.117188 97.894531 90.089844 C 97.277344 91.058594 96.609375 91.992188 95.890625 92.886719 C 95.167969 93.785156 94.402344 94.636719 93.585938 95.449219 C 92.769531 96.257812 91.910156 97.019531 91.011719 97.734375 C 90.109375 98.449219 89.171875 99.109375 88.199219 99.71875 C 87.222656 100.328125 86.214844 100.882812 85.179688 101.378906 C 84.144531 101.875 83.082031 102.3125 81.996094 102.691406 C 80.910156 103.070312 79.808594 103.386719 78.6875 103.640625 C 77.566406 103.894531 76.433594 104.085938 75.292969 104.214844 C 74.148438 104.34375 73.003906 104.40625 71.851562 104.40625 C 70.703125 104.40625 69.558594 104.34375 68.414062 104.214844 C 67.273438 104.085938 66.140625 103.894531 65.019531 103.640625 C 63.898438 103.386719 62.796875 103.070312 61.710938 102.691406 C 60.625 102.3125 59.5625 101.875 58.527344 101.378906 C 57.488281 100.882812 56.484375 100.328125 55.507812 99.71875 C 54.535156 99.109375 53.597656 98.449219 52.695312 97.734375 C 51.792969 97.019531 50.9375 96.257812 50.121094 95.449219 C 49.304688 94.636719 48.535156 93.785156 47.816406 92.886719 C 47.097656 91.992188 46.429688 91.058594 45.8125 90.089844 C 45.195312 89.117188 44.636719 88.117188 44.132812 87.082031 C 43.628906 86.050781 43.183594 84.992188 42.796875 83.90625 C 42.414062 82.824219 42.089844 81.722656 41.828125 80.605469 C 41.566406 79.484375 41.367188 78.355469 41.230469 77.214844 C 41.09375 76.070312 41.023438 74.925781 41.015625 73.777344 C 41.007812 72.625 41.0625 71.480469 41.183594 70.335938 C 41.304688 69.195312 41.488281 68.0625 41.734375 66.9375 C 41.980469 65.816406 42.289062 64.710938 42.660156 63.621094 C 43.03125 62.535156 43.460938 61.46875 43.949219 60.429688 C 44.441406 59.390625 44.988281 58.378906 45.589844 57.402344 C 46.191406 56.421875 46.847656 55.480469 47.554688 54.574219 C 48.261719 53.667969 49.019531 52.804688 49.824219 51.984375 C 50.628906 51.160156 51.476562 50.386719 52.367188 49.660156 C 53.257812 48.933594 54.1875 48.261719 55.152344 47.636719 C 56.121094 47.015625 57.117188 46.449219 58.148438 45.9375 C 58.582031 45.722656 58.957031 45.433594 59.273438 45.066406 C 59.59375 44.703125 59.828125 44.292969 59.984375 43.832031 C 60.136719 43.375 60.195312 42.902344 60.164062 42.421875 C 60.128906 41.9375 60.007812 41.480469 59.789062 41.046875 C 59.574219 40.613281 59.285156 40.238281 58.921875 39.921875 C 58.554688 39.601562 58.144531 39.367188 57.6875 39.214844 C 57.226562 39.058594 56.757812 39 56.273438 39.03125 C 55.792969 39.066406 55.332031 39.191406 54.898438 39.40625 C 54.265625 39.722656 53.636719 40.054688 53.019531 40.40625 C 52.402344 40.753906 51.796875 41.125 51.199219 41.507812 C 50.601562 41.890625 50.015625 42.292969 49.441406 42.710938 C 48.867188 43.128906 48.304688 43.5625 47.753906 44.011719 C 47.203125 44.457031 46.667969 44.921875 46.140625 45.402344 C 45.617188 45.878906 45.105469 46.375 44.609375 46.878906 C 44.113281 47.386719 43.632812 47.910156 43.164062 48.441406 C 42.695312 48.976562 42.242188 49.523438 41.804688 50.082031 C 41.367188 50.644531 40.949219 51.214844 40.542969 51.796875 C 40.136719 52.378906 39.75 52.972656 39.375 53.578125 C 39.003906 54.183594 38.648438 54.800781 38.3125 55.421875 C 37.972656 56.046875 37.652344 56.683594 37.351562 57.324219 C 37.046875 57.964844 36.765625 58.617188 36.5 59.277344 C 36.234375 59.933594 35.984375 60.597656 35.757812 61.269531 C 35.527344 61.945312 35.316406 62.621094 35.125 63.304688 C 34.933594 63.988281 34.761719 64.679688 34.609375 65.371094 C 34.457031 66.066406 34.324219 66.761719 34.210938 67.464844 C 34.097656 68.164062 34.003906 68.867188 33.929688 69.574219 C 33.855469 70.28125 33.800781 70.988281 33.765625 71.699219 C 33.730469 72.40625 33.71875 73.117188 33.722656 73.828125 C 33.726562 74.535156 33.753906 75.246094 33.796875 75.953125 C 33.839844 76.664062 33.90625 77.371094 33.988281 78.074219 C 34.074219 78.78125 34.175781 79.480469 34.300781 80.183594 C 34.421875 80.882812 34.566406 81.578125 34.730469 82.269531 C 34.890625 82.957031 35.070312 83.644531 35.273438 84.328125 C 35.472656 85.007812 35.691406 85.683594 35.929688 86.351562 C 36.167969 87.019531 36.425781 87.683594 36.699219 88.335938 C 36.976562 88.992188 37.269531 89.636719 37.582031 90.277344 C 37.890625 90.914062 38.21875 91.542969 38.566406 92.164062 C 38.914062 92.785156 39.277344 93.394531 39.65625 93.992188 C 40.039062 94.59375 40.433594 95.179688 40.847656 95.757812 C 41.261719 96.335938 41.691406 96.902344 42.136719 97.453125 C 42.582031 98.007812 43.039062 98.546875 43.515625 99.074219 C 43.992188 99.605469 44.480469 100.117188 44.984375 100.617188 C 45.488281 101.117188 46.003906 101.605469 46.535156 102.074219 C 47.066406 102.546875 47.609375 103.003906 48.167969 103.445312 C 48.722656 103.886719 49.292969 104.3125 49.871094 104.71875 C 50.453125 105.128906 51.042969 105.523438 51.644531 105.898438 C 52.25 106.273438 52.859375 106.632812 53.484375 106.976562 C 54.105469 107.316406 54.734375 107.644531 55.375 107.949219 C 56.015625 108.257812 56.664062 108.546875 57.320312 108.816406 C 57.980469 109.085938 58.640625 109.339844 59.3125 109.570312 C 59.984375 109.804688 60.660156 110.019531 61.34375 110.214844 C 62.023438 110.410156 62.710938 110.589844 63.40625 110.746094 C 64.097656 110.902344 64.792969 111.039062 65.492188 111.160156 C 66.195312 111.277344 66.898438 111.375 67.601562 111.457031 C 68.308594 111.535156 69.015625 111.59375 69.722656 111.632812 C 70.433594 111.671875 71.144531 111.691406 71.851562 111.691406 C 72.5625 111.691406 73.273438 111.671875 73.980469 111.632812 C 74.691406 111.59375 75.398438 111.535156 76.105469 111.457031 C 76.808594 111.375 77.511719 111.277344 78.210938 111.160156 C 78.914062 111.039062 79.609375 110.902344 80.300781 110.746094 C 80.992188 110.589844 81.679688 110.410156 82.363281 110.214844 C 83.046875 110.019531 83.722656 109.804688 84.394531 109.570312 C 85.0625 109.339844 85.726562 109.085938 86.382812 108.816406 C 87.039062 108.546875 87.6875 108.257812 88.328125 107.949219 C 88.96875 107.644531 89.601562 107.316406 90.222656 106.976562 C 90.847656 106.632812 91.457031 106.273438 92.058594 105.898438 C 92.664062 105.523438 93.253906 105.128906 93.832031 104.71875 C 94.414062 104.3125 94.984375 103.886719 95.539062 103.445312 C 96.09375 103.003906 96.640625 102.546875 97.171875 102.074219 C 97.703125 101.605469 98.21875 101.117188 98.722656 100.617188 C 99.226562 100.117188 99.714844 99.605469 100.191406 99.074219 C 100.667969 98.546875 101.125 98.007812 101.570312 97.453125 C 102.015625 96.902344 102.445312 96.335938 102.859375 95.757812 C 103.273438 95.179688 103.667969 94.59375 104.050781 93.992188 C 104.429688 93.394531 104.792969 92.785156 105.140625 92.164062 C 105.484375 91.542969 105.816406 90.914062 106.125 90.277344 C 106.4375 89.636719 106.730469 88.992188 107.003906 88.335938 C 107.28125 87.683594 107.539062 87.019531 107.777344 86.351562 C 108.015625 85.683594 108.234375 85.007812 108.433594 84.328125 C 108.632812 83.644531 108.816406 82.957031 108.976562 82.269531 C 109.140625 81.578125 109.28125 80.882812 109.40625 80.183594 C 109.527344 79.480469 109.632812 78.78125 109.71875 78.074219 C 109.800781 77.371094 109.863281 76.664062 109.910156 75.953125 C 109.953125 75.246094 109.980469 74.535156 109.984375 73.828125 C 109.988281 73.117188 109.972656 72.40625 109.9375 71.699219 C 109.90625 70.988281 109.851562 70.28125 109.777344 69.574219 C 109.703125 68.867188 109.609375 68.164062 109.496094 67.464844 C 109.378906 66.761719 109.246094 66.066406 109.09375 65.371094 C 108.941406 64.679688 108.769531 63.988281 108.578125 63.304688 C 108.390625 62.621094 108.179688 61.945312 107.949219 61.269531 C 107.722656 60.597656 107.472656 59.933594 107.207031 59.277344 C 106.941406 58.617188 106.65625 57.964844 106.355469 57.324219 C 106.054688 56.683594 105.734375 56.046875 105.394531 55.421875 C 105.058594 54.800781 104.703125 54.183594 104.332031 53.578125 C 103.957031 52.972656 103.570312 52.378906 103.164062 51.796875 C 102.757812 51.214844 102.335938 50.644531 101.902344 50.082031 C 101.464844 49.523438 101.011719 48.976562 100.542969 48.441406 C 100.074219 47.910156 99.59375 47.386719 99.097656 46.878906 C 98.597656 46.375 98.089844 45.878906 97.5625 45.402344 C 97.039062 44.921875 96.503906 44.457031 95.953125 44.011719 C 95.402344 43.5625 94.839844 43.128906 94.265625 42.710938 C 93.691406 42.292969 93.105469 41.890625 92.507812 41.507812 C 91.910156 41.125 91.304688 40.753906 90.6875 40.40625 C 90.070312 40.054688 89.441406 39.722656 88.804688 39.40625 Z M 88.804688 39.40625 " clip-rule="nonzero"/></clipPath><linearGradient x1="11.179462" gradientTransform="matrix(3.645833, 0, 0, 3.645833, -1.063509, -1.063505)" y1="32.163625" x2="28.3462" gradientUnits="userSpaceOnUse" y2="9.394814" id="03b6d8e13b"><stop stop-opacity="1" stop-color="rgb(94.509888%, 43.528748%, 60.389709%)" offset="0"/><stop stop-opacity="1" stop-color="rgb(94.509888%, 43.528748%, 60.389709%)" offset="0.0625"/><stop stop-opacity="1" stop-color="rgb(94.508362%, 43.515015%, 60.380554%)" offset="0.09375"/><stop stop-opacity="1" stop-color="rgb(94.496155%, 43.347168%, 60.282898%)" offset="0.109375"/><stop stop-opacity="1" stop-color="rgb(94.474792%, 43.037415%, 60.102844%)" offset="0.125"/><stop stop-opacity="1" stop-color="rgb(94.45343%, 42.729187%, 59.924316%)" offset="0.140625"/><stop stop-opacity="1" stop-color="rgb(94.432068%, 42.420959%, 59.744263%)" offset="0.15625"/><stop stop-opacity="1" stop-color="rgb(94.410706%, 42.112732%, 59.565735%)" offset="0.171875"/><stop stop-opacity="1" stop-color="rgb(94.387817%, 41.804504%, 59.385681%)" offset="0.1875"/><stop stop-opacity="1" stop-color="rgb(94.366455%, 41.496277%, 59.207153%)" offset="0.203125"/><stop stop-opacity="1" stop-color="rgb(94.345093%, 41.188049%, 59.028625%)" offset="0.21875"/><stop stop-opacity="1" stop-color="rgb(94.32373%, 40.879822%, 58.848572%)" offset="0.234375"/><stop stop-opacity="1" stop-color="rgb(94.302368%, 40.571594%, 58.670044%)" offset="0.25"/><stop stop-opacity="1" stop-color="rgb(94.281006%, 40.263367%, 58.48999%)" offset="0.265625"/><stop stop-opacity="1" stop-color="rgb(94.259644%, 39.955139%, 58.311462%)" offset="0.28125"/><stop stop-opacity="1" stop-color="rgb(94.236755%, 39.646912%, 58.131409%)" offset="0.296875"/><stop stop-opacity="1" stop-color="rgb(94.215393%, 39.337158%, 57.952881%)" offset="0.3125"/><stop stop-opacity="1" stop-color="rgb(94.194031%, 39.028931%, 57.772827%)" offset="0.328125"/><stop stop-opacity="1" stop-color="rgb(94.172668%, 38.720703%, 57.594299%)" offset="0.34375"/><stop stop-opacity="1" stop-color="rgb(94.151306%, 38.412476%, 57.414246%)" offset="0.359375"/><stop stop-opacity="1" stop-color="rgb(94.129944%, 38.104248%, 57.235718%)" offset="0.375"/><stop stop-opacity="1" stop-color="rgb(94.108582%, 37.796021%, 57.055664%)" offset="0.390625"/><stop stop-opacity="1" stop-color="rgb(94.085693%, 37.487793%, 56.877136%)" offset="0.40625"/><stop stop-opacity="1" stop-color="rgb(94.064331%, 37.179565%, 56.698608%)" offset="0.421875"/><stop stop-opacity="1" stop-color="rgb(94.042969%, 36.871338%, 56.518555%)" offset="0.4375"/><stop stop-opacity="1" stop-color="rgb(94.021606%, 36.56311%, 56.340027%)" offset="0.441674"/><stop stop-opacity="1" stop-color="rgb(94.010925%, 36.408997%, 56.25%)" offset="0.453125"/><stop stop-opacity="1" stop-color="rgb(94.000244%, 36.254883%, 56.159973%)" offset="0.46875"/><stop stop-opacity="1" stop-color="rgb(93.978882%, 35.945129%, 55.981445%)" offset="0.484375"/><stop stop-opacity="1" stop-color="rgb(93.95752%, 35.636902%, 55.801392%)" offset="0.5"/><stop stop-opacity="1" stop-color="rgb(93.934631%, 35.328674%, 55.622864%)" offset="0.515625"/><stop stop-opacity="1" stop-color="rgb(93.913269%, 35.020447%, 55.44281%)" offset="0.53125"/><stop stop-opacity="1" stop-color="rgb(93.891907%, 34.712219%, 55.264282%)" offset="0.546875"/><stop stop-opacity="1" stop-color="rgb(93.870544%, 34.403992%, 55.084229%)" offset="0.558326"/><stop stop-opacity="1" stop-color="rgb(93.859863%, 34.249878%, 54.995728%)" offset="0.5625"/><stop stop-opacity="1" stop-color="rgb(93.849182%, 34.095764%, 54.905701%)" offset="0.578125"/><stop stop-opacity="1" stop-color="rgb(93.82782%, 33.787537%, 54.725647%)" offset="0.59375"/><stop stop-opacity="1" stop-color="rgb(93.806458%, 33.479309%, 54.547119%)" offset="0.609375"/><stop stop-opacity="1" stop-color="rgb(93.783569%, 33.171082%, 54.368591%)" offset="0.625"/><stop stop-opacity="1" stop-color="rgb(93.762207%, 32.862854%, 54.188538%)" offset="0.640625"/><stop stop-opacity="1" stop-color="rgb(93.740845%, 32.554626%, 54.01001%)" offset="0.65625"/><stop stop-opacity="1" stop-color="rgb(93.719482%, 32.244873%, 53.829956%)" offset="0.671875"/><stop stop-opacity="1" stop-color="rgb(93.69812%, 31.936646%, 53.651428%)" offset="0.6875"/><stop stop-opacity="1" stop-color="rgb(93.676758%, 31.628418%, 53.471375%)" offset="0.703125"/><stop stop-opacity="1" stop-color="rgb(93.655396%, 31.32019%, 53.292847%)" offset="0.71875"/><stop stop-opacity="1" stop-color="rgb(93.632507%, 31.011963%, 53.112793%)" offset="0.734375"/><stop stop-opacity="1" stop-color="rgb(93.611145%, 30.703735%, 52.934265%)" offset="0.75"/><stop stop-opacity="1" stop-color="rgb(93.589783%, 30.395508%, 52.754211%)" offset="0.765625"/><stop stop-opacity="1" stop-color="rgb(93.56842%, 30.08728%, 52.575684%)" offset="0.78125"/><stop stop-opacity="1" stop-color="rgb(93.547058%, 29.779053%, 52.39563%)" offset="0.796875"/><stop stop-opacity="1" stop-color="rgb(93.525696%, 29.470825%, 52.217102%)" offset="0.8125"/><stop stop-opacity="1" stop-color="rgb(93.504333%, 29.162598%, 52.037048%)" offset="0.828125"/><stop stop-opacity="1" stop-color="rgb(93.481445%, 28.85437%, 51.858521%)" offset="0.84375"/><stop stop-opacity="1" stop-color="rgb(93.460083%, 28.544617%, 51.679993%)" offset="0.859375"/><stop stop-opacity="1" stop-color="rgb(93.438721%, 28.236389%, 51.499939%)" offset="0.875"/><stop stop-opacity="1" stop-color="rgb(93.417358%, 27.928162%, 51.321411%)" offset="0.890625"/><stop stop-opacity="1" stop-color="rgb(93.395996%, 27.619934%, 51.141357%)" offset="0.90625"/><stop stop-opacity="1" stop-color="rgb(93.374634%, 27.311707%, 50.96283%)" offset="0.921875"/><stop stop-opacity="1" stop-color="rgb(93.353271%, 27.003479%, 50.782776%)" offset="0.9375"/><stop stop-opacity="1" stop-color="rgb(93.334961%, 26.759338%, 50.640869%)" offset="1"/></linearGradient><clipPath id="a012a4c6ee"><path d="M 68 31 L 76 31 L 76 76 L 68 76 Z M 68 31 " clip-rule="nonzero"/></clipPath><clipPath id="7e1ca3243e"><path d="M 71.851562 75.5 C 72.335938 75.5 72.800781 75.40625 73.25 75.222656 C 73.695312 75.035156 74.089844 74.773438 74.429688 74.429688 C 74.773438 74.089844 75.035156 73.695312 75.222656 73.25 C 75.40625 72.800781 75.5 72.335938 75.5 71.851562 L 75.5 35.394531 C 75.5 34.910156 75.40625 34.445312 75.222656 34 C 75.035156 33.554688 74.773438 33.160156 74.429688 32.816406 C 74.089844 32.476562 73.695312 32.210938 73.25 32.027344 C 72.800781 31.839844 72.335938 31.75 71.851562 31.75 C 71.371094 31.75 70.90625 31.839844 70.457031 32.027344 C 70.011719 32.210938 69.617188 32.476562 69.273438 32.816406 C 68.933594 33.160156 68.667969 33.554688 68.484375 34 C 68.300781 34.445312 68.207031 34.910156 68.207031 35.394531 L 68.207031 71.851562 C 68.207031 72.335938 68.300781 72.800781 68.484375 73.25 C 68.667969 73.695312 68.933594 74.089844 69.273438 74.429688 C 69.617188 74.773438 70.011719 75.035156 70.457031 75.222656 C 70.90625 75.40625 71.371094 75.5 71.851562 75.5 Z M 71.851562 75.5 " clip-rule="nonzero"/></clipPath><linearGradient x1="16.753059" gradientTransform="matrix(3.645833, 0, 0, 3.645833, -1.063509, -1.063505)" y1="19.305901" x2="23.246341" gradientUnits="userSpaceOnUse" y2="10.693647" id="9ad28abc9e"><stop stop-opacity="1" stop-color="rgb(93.977356%, 35.923767%, 55.967712%)" offset="0"/><stop stop-opacity="1" stop-color="rgb(93.968201%, 35.806274%, 55.900574%)" offset="0.03125"/><stop stop-opacity="1" stop-color="rgb(93.951416%, 35.572815%, 55.764771%)" offset="0.0625"/><stop stop-opacity="1" stop-color="rgb(93.936157%, 35.339355%, 55.628967%)" offset="0.09375"/><stop stop-opacity="1" stop-color="rgb(93.919373%, 35.105896%, 55.493164%)" offset="0.111632"/><stop stop-opacity="1" stop-color="rgb(93.911743%, 34.989929%, 55.426025%)" offset="0.125"/><stop stop-opacity="1" stop-color="rgb(93.902588%, 34.872437%, 55.357361%)" offset="0.15625"/><stop stop-opacity="1" stop-color="rgb(93.887329%, 34.640503%, 55.221558%)" offset="0.1875"/><stop stop-opacity="1" stop-color="rgb(93.870544%, 34.407043%, 55.085754%)" offset="0.21875"/><stop stop-opacity="1" stop-color="rgb(93.85376%, 34.173584%, 54.951477%)" offset="0.25"/><stop stop-opacity="1" stop-color="rgb(93.836975%, 33.940125%, 54.815674%)" offset="0.28125"/><stop stop-opacity="1" stop-color="rgb(93.821716%, 33.706665%, 54.679871%)" offset="0.3125"/><stop stop-opacity="1" stop-color="rgb(93.804932%, 33.473206%, 54.544067%)" offset="0.34375"/><stop stop-opacity="1" stop-color="rgb(93.788147%, 33.239746%, 54.408264%)" offset="0.375"/><stop stop-opacity="1" stop-color="rgb(93.772888%, 33.006287%, 54.272461%)" offset="0.40625"/><stop stop-opacity="1" stop-color="rgb(93.756104%, 32.774353%, 54.136658%)" offset="0.4375"/><stop stop-opacity="1" stop-color="rgb(93.739319%, 32.540894%, 54.000854%)" offset="0.46875"/><stop stop-opacity="1" stop-color="rgb(93.72406%, 32.307434%, 53.866577%)" offset="0.5"/><stop stop-opacity="1" stop-color="rgb(93.707275%, 32.073975%, 53.730774%)" offset="0.53125"/><stop stop-opacity="1" stop-color="rgb(93.690491%, 31.840515%, 53.594971%)" offset="0.5625"/><stop stop-opacity="1" stop-color="rgb(93.673706%, 31.607056%, 53.459167%)" offset="0.59375"/><stop stop-opacity="1" stop-color="rgb(93.658447%, 31.373596%, 53.323364%)" offset="0.625"/><stop stop-opacity="1" stop-color="rgb(93.641663%, 31.140137%, 53.187561%)" offset="0.65625"/><stop stop-opacity="1" stop-color="rgb(93.624878%, 30.908203%, 53.051758%)" offset="0.6875"/><stop stop-opacity="1" stop-color="rgb(93.609619%, 30.674744%, 52.91748%)" offset="0.71875"/><stop stop-opacity="1" stop-color="rgb(93.592834%, 30.441284%, 52.781677%)" offset="0.75"/><stop stop-opacity="1" stop-color="rgb(93.57605%, 30.207825%, 52.645874%)" offset="0.78125"/><stop stop-opacity="1" stop-color="rgb(93.560791%, 29.974365%, 52.510071%)" offset="0.8125"/><stop stop-opacity="1" stop-color="rgb(93.544006%, 29.740906%, 52.374268%)" offset="0.84375"/><stop stop-opacity="1" stop-color="rgb(93.527222%, 29.507446%, 52.238464%)" offset="0.875"/><stop stop-opacity="1" stop-color="rgb(93.510437%, 29.273987%, 52.102661%)" offset="0.888368"/><stop stop-opacity="1" stop-color="rgb(93.502808%, 29.15802%, 52.035522%)" offset="0.90625"/><stop stop-opacity="1" stop-color="rgb(93.495178%, 29.040527%, 51.968384%)" offset="0.9375"/><stop stop-opacity="1" stop-color="rgb(93.478394%, 28.808594%, 51.832581%)" offset="0.96875"/><stop stop-opacity="1" stop-color="rgb(93.461609%, 28.575134%, 51.696777%)" offset="1"/></linearGradient></defs><rect x="-14.4" width="172.8" fill="#ffffff" y="-14.4" height="172.799997" fill-opacity="1"/><rect x="-14.4" width="172.8" fill="#ffffff" y="-14.4" height="172.799997" fill-opacity="1"/><g clip-path="url(#7748e7783f)"><g clip-path="url(#66d7e8be11)"><path fill="url(#7def52ef29)" d="M 6.226562 6.226562 L 6.226562 137.476562 L 137.476562 137.476562 L 137.476562 6.226562 Z M 6.226562 6.226562 " fill-rule="nonzero"/></g></g><g clip-path="url(#abbc1a30bc)"><g clip-path="url(#f713d5ebf3)"><path fill="url(#03b6d8e13b)" d="M 33.71875 39 L 33.71875 111.691406 L 109.988281 111.691406 L 109.988281 39 Z M 33.71875 39 " fill-rule="nonzero"/></g></g><g clip-path="url(#a012a4c6ee)"><g clip-path="url(#7e1ca3243e)"><path fill="url(#9ad28abc9e)" d="M 68.207031 31.75 L 68.207031 75.5 L 75.5 75.5 L 75.5 31.75 Z M 68.207031 31.75 " fill-rule="nonzero"/></g></g></svg>